<svg width="18" height="20" viewBox="0 0 18 20" fill="none" xmlns="http://www.w3.org/2000/svg">
<path d="M12 0C12.2549 0.000282707 12.5 0.0978791 12.6854 0.272848C12.8707 0.447818 12.9822 0.686953 12.9972 0.941395C13.0121 1.19584 12.9293 1.44638 12.7657 1.64183C12.6021 1.83729 12.3701 1.9629 12.117 1.993L12 2C11.307 2 10.67 2.694 10.309 3.552C10.9259 3.23804 11.6003 3.05295 12.291 3.008L12.556 3C15.538 3 18 6.053 18 9.32C18 12.867 17.394 15.182 15.577 17.898C13.885 20.149 11.485 20.651 9.167 19.132C9.11996 19.1019 9.06567 19.0852 9.00988 19.0834C8.95408 19.0816 8.89884 19.095 8.85 19.122C6.515 20.65 4.115 20.149 2.39 17.852C0.607 15.184 0 12.868 0 9.32L0.00399995 9.098C0.112 5.917 2.53 3 5.444 3C6.384 3 7.296 3.291 8.132 3.792C8.551 1.842 9.95 0 12 0ZM4.966 6.154C3.606 7.012 3 8.214 3 10C3 10.2652 3.10536 10.5196 3.29289 10.7071C3.48043 10.8946 3.73478 11 4 11C4.26522 11 4.51957 10.8946 4.70711 10.7071C4.89464 10.5196 5 10.2652 5 10C5 8.875 5.28 8.322 6.034 7.846C6.25837 7.70437 6.4173 7.47942 6.47581 7.22062C6.53432 6.96182 6.48763 6.69037 6.346 6.466C6.20437 6.24163 5.97942 6.0827 5.72062 6.02419C5.46182 5.96568 5.19037 6.01237 4.966 6.154Z" fill="white"/>
</svg>
