<svg version="1.1" viewBox="0 0 2048 777" width="100%" height="100%" xmlns="http://www.w3.org/2000/svg">
<path transform="translate(267,260)" d="m0 0 5 1-5 6-8 7-14 15-146 146h-1v-174z" fill="#DB1F34"/>
<path transform="translate(496,322)" d="m0 0h22l4 8 26 64 18 44 16 39 13 31v3h-41l-4-8-10-25-2-1h-66l-1 6-11 27-1 1h-42l2-5 16-38 34-82 10-24 16-39zm10 69-4 9-12 30-4 11h41l-6-16-11-29-2-5z" fill="#313131"/>
<path transform="translate(1286,322)" d="m0 0h34v66l13-9 11-4 5-1h15l16 4 12 6 11 9 8 10 8 16 3 12v25l-4 15-7 13-7 9-10 9-14 7-11 3-7 1h-13l-14-3-14-7-9-9-2-1v10l-1 8h-23l-1-1v-187zm64 85-12 3-9 6-7 8-4 10-1 5v10l3 10 6 9 8 7 10 4 11 1 12-3 11-7 7-10 2-6 1-7v-8l-2-9-5-9-7-7-10-5-8-2z" fill="#313131"/>
<path transform="translate(1161,374)" d="m0 0h15l16 4 11 6 10 10 1-4 1-13 1-1h22l1 1v133l-1 1h-22l-1-2v-16l-3 1-4 5-10 7-12 5-12 2h-12l-12-2-12-5-10-6-11-11-9-14-5-15-1-7v-19l3-14 8-16 7-9 7-7 11-7 12-5zm8 33-12 3-10 7-7 9-3 9v18l4 10 8 9 8 5 12 3 11-1 10-4 8-6 7-11 2-8v-13l-3-9-5-8-9-8-9-4z" fill="#313131"/>
<path transform="translate(824,374)" d="m0 0h15l16 4 11 6 11 10 1-15 1-3h22l1 1v134h-23l-1-3v-15l-8 7-9 6-12 5-11 2h-14l-14-3-16-8-12-11-9-13-5-12-2-7-1-8v-14l3-16 5-12 7-10 9-10 10-7 11-5zm8 33-12 3-9 7-7 8-4 11v15l4 11 7 9 10 6 5 2 12 1 9-2 8-4 8-7 5-8 2-7v-16l-4-11-7-9-9-6-12-3z" fill="#313131"/>
<path transform="translate(951,322)" d="m0 0h33l1 1v102l16-1 8-4 7-8 10-15 11-17 3-4h39l-7 11-25 37-8 10-6 5-2 1v2l9 7 9 11 23 35 8 12 2 4h-38l-7-9-14-22-10-14-6-5-7-2-15-1v52l-1 1h-34v-188z" fill="#313131"/>
<path transform="translate(1511,374)" d="m0 0h16l13 3 12 6 10 9 2 2 2-18h23l1 5v129l-1 1h-23l-1-7v-11l-8 7-10 7-15 5-7 1h-13l-14-3-12-5-13-10-10-12-7-15-3-12-1-7v-10l3-17 5-12 7-11 8-9 13-9 9-4zm9 33-10 2-10 6-8 9-4 10-1 5v9l3 12 7 10 9 6 7 3 12 1 12-3 9-6 7-8 4-10v-19l-4-9-6-8-8-6-13-4z" fill="#313131"/>
<path transform="translate(1815,322)" d="m0 0h34v103l16-1 7-3 5-5 7-9 16-25 5-6h38l-2 4-29 43-6 8-5 6-6 3v2l8 6 9 10 32 48 2 5h-38l-7-10-13-20-8-12-7-7-8-3-16-1 1 52-1 1h-34l-1-98v-88z" fill="#313131"/>
<path transform="translate(351,273)" d="m0 0 2 3-1 236-5 1h-47l-2-1v-186z" fill="#DC1F34"/>
<path transform="translate(1700,374)" d="m0 0h16l15 3 14 7 7 6 7 10 5 11 3 10 1 9v81h-34l-1-1-1-79-3-10-7-8-9-4-6-1h-8l-9 2-10 6-6 10-2 7-1 77-1 1h-34v-135h23l1 1 1 19 12-12 13-7z" fill="#313131"/>
<path transform="translate(666,374)" d="m0 0h17l16 3 12 5 14 9 6 5 1 4-17 16h-4l-8-6-11-5-14-3-13 1-8 4-4 6 1 6 6 5 9 2 25 3 16 4 10 5 9 9 4 8 2 7v16l-4 11-8 10-10 7-14 5-13 2h-15l-14-2-16-5-14-7-12-11 2-4 13-12 3-3 5 2 9 6 10 4 14 3h17l9-4 3-6-1-8-4-4-8-3-31-4-14-4-10-5-8-8-5-10-1-5v-12l3-10 5-8 8-8 14-7 11-3z" fill="#313131"/>
<path transform="translate(334,260)" d="m0 0h5v3l-10 9-83 83h-2l-1 3h-2l-1 3-8 7-69 69h-2v2l-5 4h-40l2-4 178-178z" fill="#DB1F34"/>
<path transform="translate(163,460)" d="m0 0h117l1 1v51l-2 1h-168l2-4 17-16z" fill="#DA1F34"/>
<path transform="translate(280,344)" d="m0 0h1v98l-1 1h-99l6-7 25-25h2l1-3h2l1-3 8-7 5-5z" fill="#DB1F34"/>
<path transform="translate(98,460)" d="m0 0h40l-2 4-10 9-26 26h-2z" fill="#DB1F34"/>
</svg>
