<svg width="20" height="22" viewBox="0 0 20 22" fill="none" xmlns="http://www.w3.org/2000/svg">
<path d="M2.5 12.5H17.5L15.1565 21H4.843L2.5 12.5Z" stroke="white" stroke-width="2" stroke-linecap="round" stroke-linejoin="round"/>
<path d="M17.5 12.5H2.5C2.5 9.75 5.25 8.5 5.25 8.5C5.25 7.5 6.25 4.5 10 4.5C13.75 4.5 14.75 7.5 14.75 8.5C14.75 8.5 17.5 9.75 17.5 12.5Z" fill="white" stroke="white" stroke-width="2" stroke-linecap="round" stroke-linejoin="round"/>
<path d="M1 12.5H19" stroke="white" stroke-width="2" stroke-linecap="round"/>
<path d="M12 5C12 4.46957 11.7893 3.96086 11.4142 3.58579C11.0391 3.21071 10.5304 3 10 3C9.46957 3 8.96086 3.21071 8.58579 3.58579C8.21071 3.96086 8 4.46957 8 5" stroke="white" stroke-width="2"/>
<path d="M10 3L12 1" stroke="white" stroke-width="2" stroke-linecap="round"/>
<path d="M8 12.5V21M12 12.5V21" stroke="white" stroke-width="2"/>
</svg>
