<svg width="20" height="20" viewBox="0 0 20 20" fill="none" xmlns="http://www.w3.org/2000/svg">
<path d="M0 19V17C0 16.45 0.196 15.9793 0.588 15.588C0.98 15.1967 1.45067 15.0007 2 15H18C18.55 15 19.021 15.196 19.413 15.588C19.805 15.98 20.0007 16.4507 20 17V19C20 19.2833 19.904 19.521 19.712 19.713C19.52 19.905 19.2827 20.0007 19 20H1C0.716667 20 0.479333 19.904 0.288 19.712C0.0966668 19.52 0.000666667 19.2827 0 19ZM2 18H18V17H2V18ZM3 12.5V2C3 1.45 3.196 0.979333 3.588 0.588C3.98 0.196667 4.45067 0.000666667 5 0H15C15.55 0 16.021 0.196 16.413 0.588C16.805 0.98 17.0007 1.45067 17 2V12.5C17 12.7833 16.904 13.021 16.712 13.213C16.52 13.405 16.2827 13.5007 16 13.5C15.7173 13.4993 15.48 13.4033 15.288 13.212C15.096 13.0207 15 12.7833 15 12.5V2H5V12.5C5 12.7833 4.904 13.021 4.712 13.213C4.52 13.405 4.28267 13.5007 4 13.5C3.71733 13.4993 3.48 13.4033 3.288 13.212C3.096 13.0207 3 12.7833 3 12.5ZM9 8C9 7.5 8.95433 7 8.863 6.5C8.77167 6 8.59233 5.53333 8.325 5.1C8.14167 4.8 7.91267 4.546 7.638 4.338C7.36333 4.13 7.05067 4.02567 6.7 4.025C6.5 4.025 6.33333 4.1 6.2 4.25C6.06667 4.4 6 4.58333 6 4.8V11.2C6 11.4167 6.071 11.6 6.213 11.75C6.355 11.9 6.534 11.975 6.75 11.975C7.08333 11.975 7.38333 11.871 7.65 11.663C7.91667 11.455 8.14167 11.2007 8.325 10.9C8.59167 10.4667 8.771 10 8.863 9.5C8.955 9 9.00067 8.5 9 8ZM12 10C12.55 10 13.021 9.80433 13.413 9.413C13.805 9.02167 14.0007 8.55067 14 8C13.9993 7.44933 13.8037 6.97867 13.413 6.588C13.0223 6.19733 12.5513 6.00133 12 6C11.4487 5.99867 10.978 6.19467 10.588 6.588C10.198 6.98133 10.002 7.452 10 8C9.998 8.548 10.194 9.019 10.588 9.413C10.982 9.807 11.4527 10.0027 12 10Z" fill="white"/>
</svg>
