<svg width="22" height="18" viewBox="0 0 22 18" fill="none" xmlns="http://www.w3.org/2000/svg">
<path d="M12 15C12 14.45 11.55 14 11 14H2V8H20V2C20 0.9 19.1 0 18 0H2C0.89 0 0.00999999 0.89 0.00999999 2L0 14C0 15.11 0.89 16 2 16H11C11.55 16 12 15.55 12 15ZM18 4H2V2H18V4ZM18 18C17.45 18 17 17.55 17 17V15H15C14.45 15 14 14.55 14 14C14 13.45 14.45 13 15 13H17V11C17 10.45 17.45 10 18 10C18.55 10 19 10.45 19 11V13H21C21.55 13 22 13.45 22 14C22 14.55 21.55 15 21 15H19V17C19 17.55 18.55 18 18 18Z" fill="white"/>
</svg>
