<svg width="24" height="24" viewBox="0 0 24 24" fill="none" xmlns="http://www.w3.org/2000/svg">
<path d="M3.79388 4.10789L3.93988 3.93989C4.19386 3.68585 4.53056 3.53139 4.88878 3.5046C5.247 3.47781 5.60294 3.58046 5.89188 3.79389L6.05988 3.93989L11.9999 9.87789L17.9399 3.93789C18.0783 3.79469 18.2439 3.68049 18.4269 3.60197C18.61 3.52344 18.8068 3.48216 19.006 3.48052C19.2052 3.47888 19.4027 3.51693 19.587 3.59244C19.7713 3.66795 19.9387 3.7794 20.0795 3.92031C20.2202 4.06121 20.3315 4.22874 20.4069 4.41312C20.4822 4.5975 20.5201 4.79504 20.5183 4.99421C20.5164 5.19337 20.475 5.39018 20.3963 5.57315C20.3176 5.75612 20.2032 5.92158 20.0599 6.05989L14.1219 11.9999L20.0619 17.9399C20.3156 18.1941 20.4697 18.531 20.4961 18.8892C20.5226 19.2474 20.4196 19.6032 20.2059 19.8919L20.0599 20.0599C19.8059 20.3139 19.4692 20.4684 19.111 20.4952C18.7528 20.522 18.3968 20.4193 18.1079 20.2059L17.9399 20.0599L11.9999 14.1219L6.05988 20.0619C5.92144 20.2051 5.75587 20.3193 5.57283 20.3978C5.38979 20.4763 5.19294 20.5176 4.99377 20.5193C4.7946 20.5209 4.5971 20.4828 4.41279 20.4073C4.22848 20.3318 4.06106 20.2204 3.92029 20.0795C3.77951 19.9386 3.66821 19.771 3.59288 19.5866C3.51754 19.4023 3.47968 19.2047 3.48151 19.0056C3.48333 18.8064 3.5248 18.6096 3.6035 18.4266C3.6822 18.2437 3.79655 18.0782 3.93988 17.9399L9.87788 11.9999L3.93788 6.05989C3.68414 5.80566 3.53006 5.46882 3.50363 5.11061C3.47721 4.7524 3.5802 4.3966 3.79388 4.10789Z" fill="black" fill-opacity="0.6"/>
</svg>
