<svg width="22" height="22" viewBox="0 0 22 22" fill="none" xmlns="http://www.w3.org/2000/svg">
<path d="M7.6665 13.2222C7.6665 15.0634 10.6509 16.5556 14.3332 16.5556C18.0154 16.5556 20.9998 15.0634 20.9998 13.2222C20.9998 11.3811 18.0154 9.88892 14.3332 9.88892C10.6509 9.88892 7.6665 11.3811 7.6665 13.2222Z" stroke="white" stroke-width="2" stroke-linecap="round" stroke-linejoin="round"/>
<path d="M7.66667 13.2222V17.6667C7.66667 19.5067 10.6511 21 14.3333 21C18.0156 21 21 19.5067 21 17.6667V13.2222M1 4.33333C1 5.52444 2.27111 6.62444 4.33333 7.22C6.39556 7.81556 8.93778 7.81556 11 7.22C13.0622 6.62444 14.3333 5.52444 14.3333 4.33333C14.3333 3.14222 13.0622 2.04222 11 1.44667C8.93778 0.851111 6.39556 0.851111 4.33333 1.44667C2.27111 2.04222 1 3.14222 1 4.33333Z" stroke="white" stroke-width="2" stroke-linecap="round" stroke-linejoin="round"/>
<path d="M1 4.33325V15.4444C1 16.431 1.85778 17.0555 3.22222 17.6666" stroke="white" stroke-width="2" stroke-linecap="round" stroke-linejoin="round"/>
<path d="M1 9.88892C1 10.8756 1.85778 11.5 3.22222 12.1111" stroke="white" stroke-width="2" stroke-linecap="round" stroke-linejoin="round"/>
</svg>
