<svg width="20" height="20" viewBox="0 0 20 20" fill="none" xmlns="http://www.w3.org/2000/svg">
<path fill-rule="evenodd" clip-rule="evenodd" d="M10 0C4.47692 0 0 4.47692 0 10C0 15.5231 4.47692 20 10 20C15.5231 20 20 15.5231 20 10C20 4.47692 15.5231 0 10 0ZM8.04923 7.28C8.56277 6.76629 9.21128 6.4085 9.91972 6.24805C10.6281 6.08759 11.3675 6.13103 12.0523 6.37333C12.1476 6.40687 12.2486 6.42131 12.3494 6.41583C12.4503 6.41035 12.5491 6.38505 12.6402 6.34138C12.7313 6.29772 12.8129 6.23653 12.8804 6.16133C12.9478 6.08612 12.9998 5.99837 13.0333 5.90308C13.0669 5.80778 13.0813 5.70682 13.0758 5.60595C13.0703 5.50507 13.0451 5.40627 13.0014 5.31517C12.9577 5.22407 12.8965 5.14247 12.8213 5.07502C12.7461 5.00757 12.6584 4.95559 12.5631 4.92205C11.3069 4.47792 9.9306 4.51531 8.70036 5.02699C7.47012 5.53868 6.47328 6.48832 5.90256 7.69231H5.38462C5.1806 7.69231 4.98495 7.77335 4.84069 7.91761C4.69643 8.06187 4.61538 8.25753 4.61538 8.46154C4.61538 8.66555 4.69643 8.86121 4.84069 9.00547C4.98495 9.14973 5.1806 9.23077 5.38462 9.23077H5.44C5.36706 9.741 5.36706 10.259 5.44 10.7692H5.38462C5.1806 10.7692 4.98495 10.8503 4.84069 10.9945C4.69643 11.1388 4.61538 11.3344 4.61538 11.5385C4.61538 11.7425 4.69643 11.9381 4.84069 12.0824C4.98495 12.2266 5.1806 12.3077 5.38462 12.3077H5.90256C6.47328 13.5117 7.47012 14.4613 8.70036 14.973C9.9306 15.4847 11.3069 15.5221 12.5631 15.0779C12.6584 15.0444 12.7461 14.9924 12.8213 14.925C12.8965 14.8575 12.9577 14.7759 13.0014 14.6848C13.0451 14.5937 13.0703 14.4949 13.0758 14.3941C13.0813 14.2932 13.0669 14.1922 13.0333 14.0969C12.9998 14.0016 12.9478 13.9139 12.8804 13.8387C12.8129 13.7635 12.7313 13.7023 12.6402 13.6586C12.5491 13.615 12.4503 13.5897 12.3494 13.5842C12.2486 13.5787 12.1476 13.5931 12.0523 13.6267C11.2797 13.9001 10.44 13.9197 9.65548 13.6824C8.871 13.4452 8.18282 12.9635 7.69128 12.3077H10.7692C10.9732 12.3077 11.1689 12.2266 11.3132 12.0824C11.4574 11.9381 11.5385 11.7425 11.5385 11.5385C11.5385 11.3344 11.4574 11.1388 11.3132 10.9945C11.1689 10.8503 10.9732 10.7692 10.7692 10.7692H7C6.89778 10.2615 6.89778 9.7385 7 9.23077H10.7692C10.9732 9.23077 11.1689 9.14973 11.3132 9.00547C11.4574 8.86121 11.5385 8.66555 11.5385 8.46154C11.5385 8.25753 11.4574 8.06187 11.3132 7.91761C11.1689 7.77335 10.9732 7.69231 10.7692 7.69231H7.69231C7.80034 7.54872 7.91932 7.41128 8.04923 7.28Z" fill="white"/>
</svg>
