<svg width="19" height="20" viewBox="0 0 19 20" fill="none" xmlns="http://www.w3.org/2000/svg">
<path d="M10.4762 0V5.71429C10.4762 6.21946 10.6769 6.70394 11.0341 7.06116C11.3913 7.41837 11.8758 7.61905 12.381 7.61905H18.0952V17.1429C18.0952 17.648 17.8946 18.1325 17.5373 18.4897C17.1801 18.8469 16.6957 19.0476 16.1905 19.0476H9.70476C10.6905 18.0215 11.2927 16.6872 11.4099 15.2691C11.5272 13.8511 11.1523 12.436 10.3485 11.2619C9.54472 10.0878 8.36099 9.22646 6.99657 8.82283C5.63215 8.4192 4.17033 8.49791 2.85714 9.04571V1.90476C2.85714 1.39959 3.05782 0.915104 3.41503 0.557892C3.77225 0.20068 4.25673 0 4.7619 0H10.4762ZM11.9048 0.47619V5.71429C11.9048 5.84058 11.9549 5.9617 12.0442 6.051C12.1335 6.14031 12.2547 6.19048 12.381 6.19048H17.619L11.9048 0.47619ZM10.4762 14.7619C10.4762 14.074 10.3407 13.3929 10.0775 12.7574C9.81423 12.1219 9.42839 11.5444 8.94199 11.058C8.45559 10.5716 7.87814 10.1858 7.24263 9.92254C6.60711 9.6593 5.92597 9.52381 5.2381 9.52381C4.55022 9.52381 3.86908 9.6593 3.23356 9.92254C2.59805 10.1858 2.0206 10.5716 1.5342 11.058C1.0478 11.5444 0.661965 12.1219 0.398726 12.7574C0.135487 13.3929 -1.02502e-08 14.074 0 14.7619C2.07011e-08 16.1511 0.551869 17.4835 1.5342 18.4658C2.51654 19.4481 3.84887 20 5.2381 20C6.62732 20 7.95965 19.4481 8.94199 18.4658C9.92432 17.4835 10.4762 16.1511 10.4762 14.7619ZM5.71429 15.2381L5.71524 17.6219C5.71524 17.7482 5.66507 17.8693 5.57576 17.9586C5.48646 18.0479 5.36534 18.0981 5.23905 18.0981C5.11275 18.0981 4.99163 18.0479 4.90233 17.9586C4.81303 17.8693 4.76286 17.7482 4.76286 17.6219V15.2381H2.37714C2.25085 15.2381 2.12973 15.1879 2.04043 15.0986C1.95112 15.0093 1.90095 14.8882 1.90095 14.7619C1.90095 14.6356 1.95112 14.5145 2.04043 14.4252C2.12973 14.3359 2.25085 14.2857 2.37714 14.2857H4.7619V11.9048C4.7619 11.7785 4.81207 11.6573 4.90138 11.568C4.99068 11.4787 5.1118 11.4286 5.2381 11.4286C5.36439 11.4286 5.48551 11.4787 5.57481 11.568C5.66412 11.6573 5.71429 11.7785 5.71429 11.9048V14.2857H8.09238C8.21867 14.2857 8.3398 14.3359 8.4291 14.4252C8.5184 14.5145 8.56857 14.6356 8.56857 14.7619C8.56857 14.8882 8.5184 15.0093 8.4291 15.0986C8.3398 15.1879 8.21867 15.2381 8.09238 15.2381H5.71429Z" fill="white"/>
</svg>
