<svg width="24" height="20" viewBox="0 0 24 20" fill="none" xmlns="http://www.w3.org/2000/svg">
<path d="M6.41471 0L6.21231 0.961538H7.83808L7.63563 0H6.41471ZM6.59249 1.82692V2.5H7.45788V1.82692H6.59249ZM5.11582 3.36538L4.74178 7.88462H5.56606L5.85452 4.03846H12.1307L12.0346 3.36538H5.11582ZM19.6694 4.47115V8.05778C19.9583 8.08009 20.2468 8.1068 20.5348 8.13789V4.47115H19.6694ZM6.6574 4.90385L6.4338 7.88462H6.73668C7.2176 7.88462 7.67629 8.09039 8.13091 8.3964V4.90385H6.6574ZM8.99634 4.90385V8.9548L12.7464 9.37217V8.34832L12.2543 4.90385H8.99634ZM3.17903 8.75C2.79442 8.75 2.05923 9.07495 1.38207 9.61668C0.857645 10.0362 0.36024 10.5729 0 11.115L0.808317 11.3171C1.77082 10.107 3.25437 9.32692 4.90975 9.32692C7.34217 9.32692 9.40398 11.0108 9.98602 13.2692H10.9672C10.5282 12.3683 9.85774 11.336 9.12475 10.4861C8.6762 9.96595 8.20826 9.51543 7.78125 9.20722C7.35428 8.89894 6.96971 8.75 6.73672 8.75H3.17903ZM13.6117 8.75283V14.0385H15.1574C15.5942 12.5887 16.4168 11.5976 17.5192 11.0965C18.1111 10.8274 18.7686 10.6972 19.4777 10.6841C20.0257 10.6739 20.6048 10.7345 21.2078 10.8543V9.09995C20.6552 9.01432 20.0018 8.94717 19.3025 8.89789C17.3694 8.76178 15.1601 8.75366 13.6117 8.75283ZM22.0732 9.27274V10.1923H22.7463V9.5476C22.5551 9.41788 22.2702 9.32615 22.0732 9.27274ZM9.77222 9.91192L9.78009 9.92086C10.7414 11.0354 11.5995 12.4012 12.0438 13.5452L12.2728 14.1346H10.1319C10.1438 14.2774 10.1502 14.4216 10.1502 14.5673C10.1502 14.9124 10.1159 15.2499 10.0513 15.5769H12.7464V10.243L9.77222 9.91192ZM4.9098 10.1923C2.50206 10.1923 0.534808 12.1596 0.534808 14.5673C0.534808 16.9751 2.50206 18.9423 4.9098 18.9423C7.31749 18.9423 9.2848 16.9751 9.2848 14.5673C9.2848 12.1596 7.31749 10.1923 4.9098 10.1923ZM22.0732 11.0577V11.7308H22.7463V11.0577H22.0732ZM4.9098 11.25C6.74442 11.25 8.22711 12.7327 8.22711 14.5673C8.22711 16.4018 6.74442 17.8846 4.9098 17.8846C3.07514 17.8846 1.59251 16.4018 1.59251 14.5673C1.59251 12.7327 3.07514 11.25 4.9098 11.25ZM19.6985 11.5514C19.0785 11.5593 18.3826 11.6603 17.8774 11.8843C17.0677 12.2523 16.4506 12.9201 16.0652 14.0385H16.5734C17.2434 12.9462 18.4489 12.2115 19.8137 12.2115C20.2912 12.2117 20.7645 12.303 21.2078 12.4808V11.7381C20.6702 11.6219 20.1654 11.5591 19.6985 11.5514ZM4.9098 12.1154C3.53538 12.1154 2.45788 13.1929 2.45788 14.5673C2.45788 15.9417 3.53538 17.0192 4.9098 17.0192C6.28418 17.0192 7.36172 15.9417 7.36172 14.5673C7.36172 13.1929 6.28418 12.1154 4.9098 12.1154ZM22.0732 12.5962V12.9649C22.3228 13.151 22.5488 13.3667 22.7463 13.6071V12.5962H22.0732ZM19.8137 13.0769C18.2034 13.0769 16.8809 14.3994 16.8809 16.0095C16.8809 17.6198 18.2034 18.9423 19.8137 18.9423C21.4238 18.9423 22.7463 17.6198 22.7463 16.0095C22.7463 14.3994 21.4238 13.0769 19.8137 13.0769ZM19.8137 14.1346C20.8482 14.1346 21.6886 14.9752 21.6886 16.0095C21.6886 17.044 20.8482 17.8846 19.8137 17.8846C18.7792 17.8846 17.9386 17.044 17.9386 16.0095C17.9386 14.9752 18.7792 14.1346 19.8137 14.1346ZM13.6117 14.9038V15.6431L16.016 16.0438C16.0158 16.0325 16.0155 16.0211 16.0155 16.0095C16.0155 15.6255 16.0742 15.2543 16.1822 14.9038H13.6117ZM19.8137 15C19.2322 15 18.804 15.4282 18.804 16.0095C18.804 16.5911 19.2322 17.0192 19.8137 17.0192C20.3951 17.0192 20.8232 16.5911 20.8232 16.0095C20.8232 15.4282 20.3951 15 19.8137 15Z" fill="#E6E6E6"/>
</svg>
