<svg width="470" height="332" viewBox="0 0 470 332" fill="none" xmlns="http://www.w3.org/2000/svg">
<path d="M475.452 55.2554C479.16 191.052 328.393 267.858 227.139 240.974C139.063 217.589 76.4568 56.4737 87.1416 -122.74C88.7403 -149.555 91.9798 -176.775 97.0204 -204C335.638 -129.166 471.744 -80.5407 475.452 55.2554Z" fill="#4AB75F" fill-opacity="0.4"/>
<g style="mix-blend-mode:multiply">
<path d="M454.112 216.382C403.739 228.159 363.629 174.795 365.961 132.991C367.99 96.6281 423.331 59.7982 490.994 50.3722C501.118 48.9618 511.518 48.165 522.056 48.075C512.278 147.463 504.485 204.604 454.112 216.382Z" fill="#4F4F4F" fill-opacity="0.4"/>
</g>
<g style="mix-blend-mode:multiply">
<path fill-rule="evenodd" clip-rule="evenodd" d="M333.172 385.258L361.388 386C361.74 376.506 361.869 366.927 361.767 357.274C359.823 172.774 274.195 18.2537 158.107 -31.2027C260.067 36.7646 331.619 185.175 333.446 358.564C333.541 367.524 333.447 376.425 333.172 385.258Z" fill="#4F4F4F" fill-opacity="0.4"/>
</g>
</svg>
