<svg width="319" height="220" viewBox="0 0 319 220" fill="none" xmlns="http://www.w3.org/2000/svg">
<path d="M290.039 47.7503C292.296 130.379 200.558 177.114 138.947 160.755C85.3552 146.526 47.2612 48.4916 53.7627 -60.5554C54.7355 -76.8717 56.7066 -93.4345 59.7737 -110C204.966 -64.4657 287.783 -34.8782 290.039 47.7503Z" fill="#D9D9D9" fill-opacity="0.2"/>
<g style="mix-blend-mode:multiply">
<path d="M277.055 145.792C246.404 152.958 221.998 120.487 223.417 95.0503C224.652 72.9244 258.325 50.5143 299.496 44.7789C305.656 43.9207 311.984 43.4358 318.397 43.3811C312.447 103.856 307.705 138.625 277.055 145.792Z" fill="#4F4F4F" fill-opacity="0.2"/>
</g>
<g style="mix-blend-mode:multiply">
<path fill-rule="evenodd" clip-rule="evenodd" d="M203.466 248.548L220.634 249C220.849 243.223 220.927 237.394 220.865 231.521C219.682 119.257 167.579 25.2345 96.9422 -4.85791C158.983 36.4981 202.521 126.802 203.633 232.306C203.69 237.758 203.633 243.174 203.466 248.548Z" fill="#4F4F4F" fill-opacity="0.2"/>
</g>
</svg>
