<svg width="318" height="220" viewBox="0 0 318 220" fill="none" xmlns="http://www.w3.org/2000/svg">
<path d="M289.3 157.75C291.556 240.379 199.819 287.114 138.208 270.755C84.616 256.526 46.522 158.492 53.0234 49.4446C53.9962 33.1283 55.9674 16.5655 59.0344 0C204.227 45.5343 287.044 75.1218 289.3 157.75Z" fill="#D9D9D9" fill-opacity="0.1"/>
<g style="mix-blend-mode:multiply">
<path d="M276.315 255.792C245.665 262.958 221.259 230.487 222.678 205.05C223.912 182.924 257.586 160.514 298.757 154.779C304.917 153.921 311.245 153.436 317.658 153.381C311.708 213.856 306.966 248.625 276.315 255.792Z" fill="#4F4F4F" fill-opacity="0.1"/>
</g>
<g style="mix-blend-mode:multiply">
<path fill-rule="evenodd" clip-rule="evenodd" d="M202.726 358.548L219.895 359C220.109 353.223 220.188 347.394 220.126 341.521C218.943 229.257 166.84 135.235 96.2029 105.142C158.243 146.498 201.782 236.802 202.893 342.306C202.951 347.758 202.894 353.174 202.726 358.548Z" fill="#4F4F4F" fill-opacity="0.1"/>
</g>
</svg>
