<svg width="493" height="332" viewBox="0 0 493 332" fill="none" xmlns="http://www.w3.org/2000/svg">
<path d="M445.452 259.255C449.16 395.052 298.393 471.858 197.139 444.974C109.063 421.589 46.4568 260.474 57.1416 81.2599C58.7403 54.4449 61.9798 27.2247 67.0204 0C305.638 74.8336 441.744 123.459 445.452 259.255Z" fill="#98FFAC" fill-opacity="0.1"/>
<g style="mix-blend-mode:multiply">
<path d="M424.112 420.382C373.739 432.16 333.629 378.795 335.961 336.991C337.99 300.628 393.331 263.798 460.994 254.372C471.118 252.962 481.518 252.165 492.056 252.075C482.278 351.463 474.485 408.604 424.112 420.382Z" fill="#4F4F4F" fill-opacity="0.4"/>
</g>
<g style="mix-blend-mode:multiply">
<path fill-rule="evenodd" clip-rule="evenodd" d="M303.172 589.258L331.388 590C331.74 580.506 331.869 570.927 331.767 561.274C329.823 376.774 244.195 222.254 128.107 172.797C230.067 240.765 301.619 389.175 303.446 562.564C303.541 571.524 303.448 580.425 303.172 589.258Z" fill="#4F4F4F" fill-opacity="0.4"/>
</g>
</svg>
