<svg width="150" height="50" viewBox="0 0 150 50" fill="none" xmlns="http://www.w3.org/2000/svg">
<path d="M40.2925 21.9707C40.6068 33.4789 27.83 39.9879 19.2491 37.7096C11.7851 35.7278 6.47949 22.074 7.38498 6.88642C7.52047 4.61396 7.795 2.30717 8.22217 0C28.4439 6.34182 39.9783 10.4626 40.2925 21.9707Z" fill="#4AB75F"/>
<g style="mix-blend-mode:multiply">
<path d="M38.4837 35.6254C34.2148 36.6235 30.8157 32.1011 31.0133 28.5584C31.1853 25.4768 35.8752 22.3557 41.6093 21.5569C42.4673 21.4373 43.3486 21.3698 44.2417 21.3622C43.4131 29.7848 42.7526 34.6273 38.4837 35.6254Z" fill="#4F4F4F"/>
</g>
<g style="mix-blend-mode:multiply">
<path fill-rule="evenodd" clip-rule="evenodd" d="M28.2345 49.9369L30.6257 49.9998C30.6555 49.1952 30.6665 48.3834 30.6578 47.5654C30.4931 31.9298 23.2364 18.8348 13.3984 14.6437C22.0391 20.4036 28.1029 32.9807 28.2577 47.6747C28.2657 48.4341 28.2579 49.1884 28.2345 49.9369Z" fill="#4F4F4F"/>
</g>
<path d="M51.0085 6.63624H55.5227L61.5682 21.3919H61.8068L67.8523 6.63624H72.3665V26.9999H68.8267V13.0098H68.6378L63.0099 26.9402H60.3651L54.7372 12.98H54.5483V26.9999H51.0085V6.63624ZM82.9858 27.2982C81.4545 27.2982 80.1321 26.98 79.0185 26.3436C77.9115 25.7006 77.0597 24.7925 76.4631 23.6192C75.8665 22.4393 75.5682 21.0505 75.5682 19.453C75.5682 17.882 75.8665 16.5032 76.4631 15.3166C77.0663 14.1235 77.9081 13.1954 78.9886 12.5325C80.0691 11.863 81.3385 11.5283 82.7969 11.5283C83.7382 11.5283 84.6264 11.6807 85.4616 11.9857C86.3035 12.284 87.0459 12.748 87.6889 13.3777C88.3385 14.0075 88.849 14.8095 89.2202 15.784C89.5914 16.7518 89.777 17.9052 89.777 19.2442V20.3479H77.2585V17.9218H86.3267C86.3201 17.2324 86.1709 16.6192 85.8793 16.0823C85.5876 15.5387 85.1799 15.1111 84.6562 14.7996C84.1392 14.488 83.536 14.3323 82.8466 14.3323C82.1108 14.3323 81.4645 14.5112 80.9077 14.8692C80.3509 15.2205 79.9167 15.6845 79.6051 16.2612C79.3002 16.8313 79.1444 17.4577 79.1378 18.1405V20.2584C79.1378 21.1467 79.3002 21.909 79.625 22.5453C79.9498 23.1751 80.4039 23.659 80.9872 23.997C81.5705 24.3285 82.2533 24.4942 83.0355 24.4942C83.5592 24.4942 84.0331 24.4213 84.4574 24.2754C84.8816 24.123 85.2495 23.9009 85.5611 23.6093C85.8726 23.3176 86.108 22.9563 86.267 22.5254L89.6278 22.9033C89.4157 23.7915 89.0114 24.5671 88.4148 25.23C87.8248 25.8862 87.0691 26.3967 86.1477 26.7612C85.2263 27.1192 84.1723 27.2982 82.9858 27.2982ZM96.4215 18.051V26.9999H92.8221V11.7272H96.2624V14.3223H96.4414C96.7927 13.4672 97.3529 12.7878 98.1218 12.284C98.8974 11.7802 99.8552 11.5283 100.995 11.5283C102.049 11.5283 102.967 11.7537 103.75 12.2044C104.538 12.6552 105.148 13.3081 105.579 14.1632C106.017 15.0183 106.232 16.0557 106.225 17.2754V26.9999H102.626V17.8323C102.626 16.8114 102.361 16.0127 101.831 15.436C101.307 14.8593 100.581 14.5709 99.6531 14.5709C99.0233 14.5709 98.4632 14.7101 97.9727 14.9885C97.4888 15.2603 97.1076 15.6547 96.8292 16.1718C96.5574 16.6888 96.4215 17.3152 96.4215 18.051ZM109.885 26.9999V11.7272H113.484V26.9999H109.885ZM111.694 9.55954C111.124 9.55954 110.634 9.37062 110.223 8.99278C109.812 8.6083 109.606 8.1476 109.606 7.61067C109.606 7.06711 109.812 6.60641 110.223 6.22857C110.634 5.8441 111.124 5.65187 111.694 5.65187C112.271 5.65187 112.761 5.8441 113.166 6.22857C113.577 6.60641 113.782 7.06711 113.782 7.61067C113.782 8.1476 113.577 8.6083 113.166 8.99278C112.761 9.37062 112.271 9.55954 111.694 9.55954ZM120.785 18.051V26.9999H117.185V11.7272H120.626V14.3223H120.805C121.156 13.4672 121.716 12.7878 122.485 12.284C123.261 11.7802 124.219 11.5283 125.359 11.5283C126.413 11.5283 127.331 11.7537 128.113 12.2044C128.902 12.6552 129.512 13.3081 129.942 14.1632C130.38 15.0183 130.595 16.0557 130.589 17.2754V26.9999H126.989V17.8323C126.989 16.8114 126.724 16.0127 126.194 15.436C125.67 14.8593 124.944 14.5709 124.016 14.5709C123.387 14.5709 122.826 14.7101 122.336 14.9885C121.852 15.2603 121.471 15.6547 121.192 16.1718C120.921 16.6888 120.785 17.3152 120.785 18.051ZM140.89 33.0453C139.597 33.0453 138.487 32.8697 137.559 32.5183C136.631 32.1736 135.885 31.7096 135.322 31.1263C134.758 30.543 134.367 29.8967 134.148 29.1874L137.39 28.4019C137.536 28.7002 137.748 28.9951 138.026 29.2868C138.305 29.5851 138.679 29.8304 139.15 30.0226C139.627 30.2215 140.227 30.3209 140.95 30.3209C141.97 30.3209 142.816 30.0723 143.485 29.5752C144.155 29.0846 144.489 28.2759 144.489 27.149V24.2556H144.31C144.125 24.6268 143.853 25.0079 143.495 25.399C143.144 25.7901 142.676 26.1182 142.093 26.3834C141.516 26.6486 140.79 26.7811 139.915 26.7811C138.742 26.7811 137.678 26.506 136.724 25.9558C135.776 25.399 135.02 24.5704 134.457 23.47C133.9 22.363 133.621 20.9776 133.621 19.3138C133.621 17.6367 133.9 16.2215 134.457 15.0681C135.02 13.908 135.779 13.0297 136.734 12.4331C137.688 11.8299 138.752 11.5283 139.925 11.5283C140.82 11.5283 141.556 11.6807 142.133 11.9857C142.716 12.284 143.18 12.6452 143.525 13.0695C143.87 13.4871 144.131 13.8815 144.31 14.2527H144.509V11.7272H148.059V27.2485C148.059 28.5543 147.747 29.6348 147.124 30.4899C146.501 31.345 145.649 31.9847 144.569 32.409C143.488 32.8332 142.262 33.0453 140.89 33.0453ZM140.92 23.9573C141.682 23.9573 142.332 23.7717 142.869 23.4004C143.406 23.0292 143.813 22.4956 144.092 21.7996C144.37 21.1036 144.509 20.2683 144.509 19.2939C144.509 18.3327 144.37 17.4909 144.092 16.7683C143.82 16.0458 143.415 15.4857 142.879 15.0879C142.348 14.6836 141.695 14.4814 140.92 14.4814C140.118 14.4814 139.448 14.6902 138.911 15.1078C138.374 15.5254 137.97 16.0988 137.698 16.828C137.426 17.5505 137.29 18.3725 137.29 19.2939C137.29 20.2286 137.426 21.0472 137.698 21.7499C137.977 22.4459 138.384 22.9895 138.921 23.3806C139.465 23.765 140.131 23.9573 140.92 23.9573Z" fill="black"/>
<path d="M54.4148 36.2726V37.8635H49.3977V36.2726H54.4148ZM50.6364 34.1817H52.6932V42.3749C52.6932 42.6514 52.7348 42.8635 52.8182 43.0112C52.9053 43.1552 53.0189 43.2537 53.1591 43.3067C53.2992 43.3597 53.4545 43.3862 53.625 43.3862C53.7538 43.3862 53.8712 43.3768 53.9773 43.3578C54.0871 43.3389 54.1705 43.3218 54.2273 43.3067L54.5739 44.9147C54.464 44.9525 54.3068 44.9942 54.1023 45.0397C53.9015 45.0851 53.6553 45.1116 53.3636 45.1192C52.8485 45.1343 52.3845 45.0567 51.9716 44.8862C51.5587 44.712 51.2311 44.4431 50.9886 44.0794C50.75 43.7158 50.6326 43.2612 50.6364 42.7158V34.1817ZM59.848 45.1703C58.9957 45.1703 58.2571 44.9828 57.6321 44.6078C57.0071 44.2328 56.5223 43.7082 56.1776 43.034C55.8366 42.3597 55.6662 41.5718 55.6662 40.6703C55.6662 39.7688 55.8366 38.979 56.1776 38.301C56.5223 37.623 57.0071 37.0965 57.6321 36.7215C58.2571 36.3465 58.9957 36.159 59.848 36.159C60.7003 36.159 61.4389 36.3465 62.0639 36.7215C62.6889 37.0965 63.1719 37.623 63.5128 38.301C63.8575 38.979 64.0298 39.7688 64.0298 40.6703C64.0298 41.5718 63.8575 42.3597 63.5128 43.034C63.1719 43.7082 62.6889 44.2328 62.0639 44.6078C61.4389 44.9828 60.7003 45.1703 59.848 45.1703ZM59.8594 43.5226C60.3215 43.5226 60.7079 43.3957 61.0185 43.1419C61.3291 42.8843 61.5601 42.5397 61.7116 42.1078C61.867 41.676 61.9446 41.195 61.9446 40.6647C61.9446 40.1306 61.867 39.6476 61.7116 39.2158C61.5601 38.7802 61.3291 38.4336 61.0185 38.176C60.7079 37.9184 60.3215 37.7897 59.8594 37.7897C59.3859 37.7897 58.992 37.9184 58.6776 38.176C58.367 38.4336 58.134 38.7802 57.9787 39.2158C57.8272 39.6476 57.7514 40.1306 57.7514 40.6647C57.7514 41.195 57.8272 41.676 57.9787 42.1078C58.134 42.5397 58.367 42.8843 58.6776 43.1419C58.992 43.3957 59.3859 43.5226 59.8594 43.5226ZM65.7756 44.9999V36.2726H67.7415V37.7556H67.8438C68.0256 37.2556 68.3267 36.8654 68.7472 36.5851C69.1676 36.301 69.6695 36.159 70.2528 36.159C70.8438 36.159 71.3419 36.3029 71.7472 36.5908C72.1563 36.8749 72.4441 37.2631 72.6108 37.7556H72.7017C72.8949 37.2707 73.2206 36.8843 73.679 36.5965C74.1411 36.3048 74.6884 36.159 75.321 36.159C76.1241 36.159 76.7794 36.4128 77.2869 36.9203C77.7945 37.4279 78.0483 38.1684 78.0483 39.1419V44.9999H75.9858V39.4601C75.9858 38.9184 75.8419 38.5226 75.554 38.2726C75.2661 38.0188 74.9138 37.8919 74.4972 37.8919C74.0009 37.8919 73.6127 38.0472 73.3324 38.3578C73.0559 38.6647 72.9176 39.0643 72.9176 39.5567V44.9999H70.9006V39.3749C70.9006 38.9241 70.7642 38.5643 70.4915 38.2953C70.2225 38.0264 69.8703 37.8919 69.4347 37.8919C69.1392 37.8919 68.8703 37.9677 68.6278 38.1192C68.3854 38.2669 68.1922 38.4772 68.0483 38.7499C67.9044 39.0188 67.8324 39.3332 67.8324 39.6931V44.9999H65.7756ZM83.9418 45.1703C83.0895 45.1703 82.3509 44.9828 81.7259 44.6078C81.1009 44.2328 80.616 43.7082 80.2713 43.034C79.9304 42.3597 79.7599 41.5718 79.7599 40.6703C79.7599 39.7688 79.9304 38.979 80.2713 38.301C80.616 37.623 81.1009 37.0965 81.7259 36.7215C82.3509 36.3465 83.0895 36.159 83.9418 36.159C84.794 36.159 85.5327 36.3465 86.1577 36.7215C86.7827 37.0965 87.2656 37.623 87.6065 38.301C87.9512 38.979 88.1236 39.7688 88.1236 40.6703C88.1236 41.5718 87.9512 42.3597 87.6065 43.034C87.2656 43.7082 86.7827 44.2328 86.1577 44.6078C85.5327 44.9828 84.794 45.1703 83.9418 45.1703ZM83.9531 43.5226C84.4152 43.5226 84.8016 43.3957 85.1122 43.1419C85.4228 42.8843 85.6539 42.5397 85.8054 42.1078C85.9607 41.676 86.0384 41.195 86.0384 40.6647C86.0384 40.1306 85.9607 39.6476 85.8054 39.2158C85.6539 38.7802 85.4228 38.4336 85.1122 38.176C84.8016 37.9184 84.4152 37.7897 83.9531 37.7897C83.4796 37.7897 83.0857 37.9184 82.7713 38.176C82.4607 38.4336 82.2277 38.7802 82.0724 39.2158C81.9209 39.6476 81.8452 40.1306 81.8452 40.6647C81.8452 41.195 81.9209 41.676 82.0724 42.1078C82.2277 42.5397 82.4607 42.8843 82.7713 43.1419C83.0857 43.3957 83.4796 43.5226 83.9531 43.5226ZM89.8693 44.9999V36.2726H91.8636V37.7272H91.9545C92.1136 37.2234 92.3864 36.8351 92.7727 36.5624C93.1629 36.2859 93.608 36.1476 94.108 36.1476C94.2216 36.1476 94.3485 36.1533 94.4886 36.1646C94.6326 36.1722 94.7519 36.1855 94.8466 36.2044V38.0965C94.7595 38.0662 94.6212 38.0397 94.4318 38.0169C94.2462 37.9904 94.0663 37.9772 93.892 37.9772C93.517 37.9772 93.1799 38.0586 92.8807 38.2215C92.5852 38.3806 92.3523 38.6022 92.1818 38.8862C92.0114 39.1703 91.9261 39.498 91.9261 39.8692V44.9999H89.8693ZM101.678 48.2726V43.6249H101.592C101.486 43.837 101.333 44.0624 101.132 44.301C100.931 44.5359 100.666 44.7366 100.337 44.9033C100.007 45.07 99.5923 45.1533 99.0923 45.1533C98.4067 45.1533 97.7931 44.9772 97.2514 44.6249C96.7098 44.2726 96.2817 43.7612 95.9673 43.0908C95.6529 42.4203 95.4957 41.6059 95.4957 40.6476C95.4957 39.6779 95.6548 38.8597 95.973 38.1931C96.295 37.5226 96.7287 37.0169 97.2741 36.676C97.8196 36.3313 98.4276 36.159 99.098 36.159C99.6094 36.159 100.03 36.2461 100.359 36.4203C100.689 36.5908 100.95 36.7972 101.143 37.0397C101.337 37.2783 101.486 37.5037 101.592 37.7158H101.717V36.2726H103.74V48.2726H101.678ZM99.6662 43.4658C100.102 43.4658 100.473 43.3484 100.78 43.1135C101.087 42.8749 101.32 42.5434 101.479 42.1192C101.638 41.695 101.717 41.2006 101.717 40.6362C101.717 40.0718 101.638 39.5813 101.479 39.1647C101.323 38.748 101.092 38.4241 100.786 38.1931C100.482 37.962 100.109 37.8465 99.6662 37.8465C99.2079 37.8465 98.8253 37.9658 98.5185 38.2044C98.2116 38.4431 97.9806 38.7726 97.8253 39.1931C97.67 39.6135 97.5923 40.0946 97.5923 40.6362C97.5923 41.1817 97.67 41.6684 97.8253 42.0965C97.9844 42.5207 98.2173 42.8559 98.5241 43.1022C98.8348 43.3446 99.2154 43.4658 99.6662 43.4658ZM108.365 45.176C107.812 45.176 107.314 45.0775 106.871 44.8806C106.431 44.6798 106.083 44.3843 105.825 43.9942C105.571 43.604 105.445 43.123 105.445 42.551C105.445 42.0586 105.536 41.6514 105.717 41.3294C105.899 41.0075 106.147 40.7499 106.462 40.5567C106.776 40.3635 107.13 40.2177 107.524 40.1192C107.922 40.0169 108.333 39.9431 108.757 39.8976C109.268 39.8446 109.683 39.7972 110.001 39.7556C110.32 39.7101 110.551 39.6419 110.695 39.551C110.842 39.4563 110.916 39.3105 110.916 39.1135V39.0794C110.916 38.6514 110.789 38.32 110.536 38.0851C110.282 37.8503 109.916 37.7328 109.439 37.7328C108.935 37.7328 108.536 37.8427 108.24 38.0624C107.948 38.2821 107.751 38.5415 107.649 38.8408L105.729 38.5681C105.88 38.0378 106.13 37.5946 106.479 37.2385C106.827 36.8787 107.253 36.6097 107.757 36.4317C108.261 36.2499 108.818 36.159 109.428 36.159C109.848 36.159 110.267 36.2082 110.683 36.3067C111.1 36.4052 111.481 36.5681 111.825 36.7953C112.17 37.0188 112.446 37.3237 112.655 37.7101C112.867 38.0965 112.973 38.5794 112.973 39.159V44.9999H110.996V43.801H110.928C110.803 44.0434 110.626 44.2707 110.399 44.4828C110.176 44.6912 109.893 44.8597 109.553 44.9885C109.215 45.1135 108.82 45.176 108.365 45.176ZM108.899 43.6647C109.312 43.6647 109.67 43.5832 109.973 43.4203C110.276 43.2537 110.509 43.034 110.672 42.7612C110.839 42.4885 110.922 42.1912 110.922 41.8692V40.8408C110.857 40.8938 110.748 40.9431 110.592 40.9885C110.441 41.034 110.27 41.0737 110.081 41.1078C109.892 41.1419 109.704 41.1722 109.518 41.1987C109.333 41.2253 109.172 41.248 109.036 41.2669C108.729 41.3086 108.454 41.3768 108.212 41.4715C107.969 41.5662 107.778 41.6987 107.638 41.8692C107.498 42.0359 107.428 42.2518 107.428 42.5169C107.428 42.8957 107.566 43.1817 107.842 43.3749C108.119 43.5681 108.471 43.6647 108.899 43.6647ZM115.041 44.9999V36.2726H117.007V37.7556H117.109C117.291 37.2556 117.592 36.8654 118.013 36.5851C118.433 36.301 118.935 36.159 119.518 36.159C120.109 36.159 120.607 36.3029 121.013 36.5908C121.422 36.8749 121.71 37.2631 121.876 37.7556H121.967C122.161 37.2707 122.486 36.8843 122.945 36.5965C123.407 36.3048 123.954 36.159 124.587 36.159C125.39 36.159 126.045 36.4128 126.553 36.9203C127.06 37.4279 127.314 38.1684 127.314 39.1419V44.9999H125.251V39.4601C125.251 38.9184 125.107 38.5226 124.82 38.2726C124.532 38.0188 124.179 37.8919 123.763 37.8919C123.267 37.8919 122.878 38.0472 122.598 38.3578C122.321 38.6647 122.183 39.0643 122.183 39.5567V44.9999H120.166V39.3749C120.166 38.9241 120.03 38.5643 119.757 38.2953C119.488 38.0264 119.136 37.8919 118.7 37.8919C118.405 37.8919 118.136 37.9677 117.893 38.1192C117.651 38.2669 117.458 38.4772 117.314 38.7499C117.17 39.0188 117.098 39.3332 117.098 39.6931V44.9999H115.041Z" fill="#49B75F"/>
</svg>
