<svg width="15" height="20" viewBox="0 0 15 20" fill="none" xmlns="http://www.w3.org/2000/svg">
<path d="M4.04857 0C3.85913 0 3.67745 0.0752549 3.5435 0.209209C3.40954 0.343164 3.33429 0.524845 3.33429 0.714286C3.33429 0.903726 3.40954 1.08541 3.5435 1.21936C3.67745 1.35332 3.85913 1.42857 4.04857 1.42857H4.28571V2.85714H2.85714C2.09938 2.85714 1.37266 3.15816 0.836838 3.69398C0.301019 4.2298 0 4.95652 0 5.71429V15.7143C0 16.472 0.301019 17.1988 0.836838 17.7346C1.37266 18.2704 2.09938 18.5714 2.85714 18.5714V19.2857C2.85714 19.4752 2.9324 19.6568 3.06635 19.7908C3.20031 19.9247 3.38199 20 3.57143 20C3.76087 20 3.94255 19.9247 4.0765 19.7908C4.21046 19.6568 4.28571 19.4752 4.28571 19.2857V18.5714H10V19.2857C10 19.4752 10.0753 19.6568 10.2092 19.7908C10.3432 19.9247 10.5248 20 10.7143 20C10.9037 20 11.0854 19.9247 11.2194 19.7908C11.3533 19.6568 11.4286 19.4752 11.4286 19.2857V18.5714C12.1863 18.5714 12.9131 18.2704 13.4489 17.7346C13.9847 17.1988 14.2857 16.472 14.2857 15.7143V5.71429C14.2857 4.95652 13.9847 4.2298 13.4489 3.69398C12.9131 3.15816 12.1863 2.85714 11.4286 2.85714H10V1.42857H10.2386C10.428 1.42857 10.6097 1.35332 10.7436 1.21936C10.8776 1.08541 10.9529 0.903726 10.9529 0.714286C10.9529 0.524845 10.8776 0.343164 10.7436 0.209209C10.6097 0.0752549 10.428 0 10.2386 0H4.04857ZM5.71429 2.85714V1.42857H8.57143V2.85714H5.71429ZM2.85714 7.85714C2.85714 7.6677 2.9324 7.48602 3.06635 7.35207C3.20031 7.21811 3.38199 7.14286 3.57143 7.14286H10.7143C10.9037 7.14286 11.0854 7.21811 11.2194 7.35207C11.3533 7.48602 11.4286 7.6677 11.4286 7.85714C11.4286 8.04658 11.3533 8.22826 11.2194 8.36222C11.0854 8.49617 10.9037 8.57143 10.7143 8.57143H3.57143C3.38199 8.57143 3.20031 8.49617 3.06635 8.36222C2.9324 8.22826 2.85714 8.04658 2.85714 7.85714Z" fill="white"/>
</svg>
