<svg width="18" height="18" viewBox="0 0 18 18" fill="none" xmlns="http://www.w3.org/2000/svg">
<path opacity="0.5" d="M0 5.3925V13.5205C0 14.5635 0 15.0855 0.283 15.4785C0.566 15.8715 1.061 16.0365 2.051 16.3665L3.216 16.7545C4.583 17.2105 5.266 17.4385 5.955 17.3455L6 17.3395V3.3395C5.88735 3.35628 5.77383 3.36663 5.66 3.3705C5.12 3.3895 4.586 3.2105 3.519 2.8555C2.121 2.3895 1.422 2.1565 0.89 2.3935C0.701473 2.47738 0.532279 2.59925 0.393 2.7515C-1.19209e-07 3.1825 0 3.9185 0 5.3925ZM18 11.9725V3.8455C18 2.8025 18 2.2805 17.717 1.8875C17.434 1.4945 16.939 1.3295 15.949 0.9995L14.784 0.6115C13.417 0.1555 12.734 -0.0725001 12.045 0.0204999L12 0.0254998V14.0255C12.1133 14.0088 12.2267 13.9985 12.34 13.9945C12.88 13.9755 13.414 14.1545 14.481 14.5095C15.879 14.9755 16.578 15.2085 17.11 14.9715C17.2985 14.8876 17.4677 14.7657 17.607 14.6135C18 14.1825 18 13.4465 18 11.9725Z" fill="white"/>
<path d="M6.247 3.29263C6.165 3.31063 6.08267 3.3263 6 3.33963V17.3396C6.67 17.2356 7.269 16.8366 8.442 16.0546L9.824 15.1326C10.76 14.5086 11.228 14.1966 11.754 14.0726C11.834 14.0526 11.916 14.037 12 14.0256V0.0256348C11.33 0.128635 10.731 0.528635 9.558 1.30963L8.176 2.23163C7.24 2.85563 6.772 3.16764 6.246 3.29164" fill="white"/>
</svg>
