<svg width="23" height="15" viewBox="0 0 23 15" fill="none" xmlns="http://www.w3.org/2000/svg">
<path d="M0 0H22.5V15H0V0ZM11.25 3.75C12.2446 3.75 13.1984 4.14509 13.9017 4.84835C14.6049 5.55161 15 6.50544 15 7.5C15 8.49456 14.6049 9.44839 13.9017 10.1517C13.1984 10.8549 12.2446 11.25 11.25 11.25C10.2554 11.25 9.30161 10.8549 8.59835 10.1517C7.89509 9.44839 7.5 8.49456 7.5 7.5C7.5 6.50544 7.89509 5.55161 8.59835 4.84835C9.30161 4.14509 10.2554 3.75 11.25 3.75ZM5 2.5C5 3.16304 4.73661 3.79893 4.26777 4.26777C3.79893 4.73661 3.16304 5 2.5 5V10C3.16304 10 3.79893 10.2634 4.26777 10.7322C4.73661 11.2011 5 11.837 5 12.5H17.5C17.5 11.837 17.7634 11.2011 18.2322 10.7322C18.7011 10.2634 19.337 10 20 10V5C19.337 5 18.7011 4.73661 18.2322 4.26777C17.7634 3.79893 17.5 3.16304 17.5 2.5H5Z" fill="white"/>
</svg>
