<svg width="20" height="22" viewBox="0 0 20 22" fill="none" xmlns="http://www.w3.org/2000/svg">
<path d="M7.111 1H12.6666C13.1086 1 13.5325 1.17559 13.8451 1.48816C14.1576 1.80072 14.3332 2.22464 14.3332 2.66667C14.3332 3.69806 13.9235 4.68722 13.1942 5.41653C12.4649 6.14583 11.4757 6.55556 10.4443 6.55556H9.33323C8.30183 6.55556 7.31267 6.14583 6.58337 5.41653C5.85406 4.68722 5.44434 3.69806 5.44434 2.66667C5.44434 2.22464 5.61993 1.80072 5.93249 1.48816C6.24505 1.17559 6.66898 1 7.111 1Z" stroke="white" stroke-width="2" stroke-linecap="round" stroke-linejoin="round"/>
<path d="M1 16.5557V15.4446C1 13.0871 1.93651 10.8261 3.6035 9.15916C5.27049 7.49217 7.53141 6.55566 9.88889 6.55566C12.2464 6.55566 14.5073 7.49217 16.1743 9.15916C17.8413 10.8261 18.7778 13.0871 18.7778 15.4446V16.5557C18.7778 17.7344 18.3095 18.8649 17.476 19.6984C16.6425 20.5319 15.5121 21.0001 14.3333 21.0001H5.44444C4.2657 21.0001 3.13524 20.5319 2.30175 19.6984C1.46825 18.8649 1 17.7344 1 16.5557Z" stroke="white" stroke-width="2" stroke-linecap="round" stroke-linejoin="round"/>
</svg>
