<svg width="19" height="22" viewBox="0 0 19 22" fill="none" xmlns="http://www.w3.org/2000/svg">
<path fill-rule="evenodd" clip-rule="evenodd" d="M15.5686 0.0675854L15.8236 0.0995853C16.4976 0.192585 17.3896 0.317585 17.8946 0.823585C18.3086 1.23659 18.4676 1.90859 18.5626 2.50859L18.6186 2.89459C18.7446 3.80459 18.7776 4.99658 18.5626 6.32058C18.1386 8.93358 16.7476 12.0516 13.2546 14.4656C13.2356 14.6536 13.2346 14.8436 13.2386 15.0336L13.2486 15.3176C13.2646 15.7546 13.2806 16.1916 13.1586 16.6156C12.9686 17.2756 12.2916 17.7106 11.6586 18.0226L11.3486 18.1696L10.9486 18.3456C10.2006 18.6636 9.19061 18.9896 8.55761 18.3556C8.17761 17.9766 8.02161 17.4206 7.89461 16.8676L7.84761 16.6606C7.79389 16.3994 7.72714 16.1411 7.64761 15.8866C7.59761 15.7399 7.54361 15.5916 7.48561 15.4416C7.42178 15.52 7.35403 15.5951 7.28261 15.6666C6.93761 16.0116 6.42261 16.2526 5.99861 16.4216C5.53561 16.6046 5.01161 16.7646 4.52661 16.8966L4.27761 16.9626L3.80061 17.0816L3.36861 17.1816L2.85161 17.2916L2.52861 17.3546C2.36752 17.3844 2.20159 17.3746 2.04514 17.326C1.88868 17.2774 1.7464 17.1915 1.63056 17.0756C1.51471 16.9598 1.42879 16.8175 1.38019 16.6611C1.33159 16.5046 1.32179 16.3387 1.35161 16.1776L1.43761 15.7466L1.59161 15.0486L1.71561 14.5386L1.80961 14.1786C1.94161 13.6946 2.10161 13.1706 2.28561 12.7086C2.45361 12.2836 2.69461 11.7686 3.03961 11.4236L3.11961 11.3466L3.05561 11.3206C2.88469 11.2557 2.71158 11.1966 2.53661 11.1436L2.25961 11.0586C1.56561 10.8486 0.823613 10.6226 0.362613 10.1606C-0.197387 9.60159 -0.00838742 8.75059 0.261613 8.04259L0.371612 7.76858L0.548613 7.36859L0.695613 7.05858C1.00761 6.42658 1.44261 5.74959 2.10261 5.55959C2.45261 5.45959 2.81661 5.45359 3.18261 5.46359L3.40261 5.47059C3.68861 5.48059 3.97361 5.49158 4.25261 5.46458C6.66661 1.97058 9.78461 0.579585 12.3976 0.155585C13.4458 -0.0163399 14.5125 -0.0459404 15.5686 0.0675854ZM5.75661 12.7426C5.59928 12.626 5.41117 12.5581 5.21562 12.5475C5.02007 12.5368 4.8257 12.5838 4.65661 12.6826L4.54661 12.7566L4.45361 12.8396L4.32861 12.9976C4.06861 13.3736 3.92061 13.8936 3.80561 14.3796L3.69761 14.8476L3.64661 15.0606L3.83761 15.0146L4.25561 14.9186C4.83361 14.7836 5.47461 14.6086 5.86861 14.2536C6.03992 14.0824 6.14327 13.8548 6.15945 13.6131C6.17564 13.3715 6.10356 13.1321 5.95661 12.9396L5.87461 12.8456L5.85061 12.8226L5.75661 12.7426ZM12.9396 5.76858C12.7539 5.58283 12.5335 5.43547 12.2908 5.33491C12.0482 5.23436 11.7881 5.18258 11.5255 5.18253C11.2628 5.18249 11.0027 5.23417 10.7601 5.33464C10.5174 5.43511 10.2969 5.5824 10.1111 5.76809C9.92536 5.95377 9.778 6.17423 9.67744 6.41687C9.57689 6.65951 9.52511 6.91958 9.52506 7.18223C9.52501 7.44488 9.5767 7.70497 9.67717 7.94764C9.77764 8.19032 9.92492 8.41083 10.1106 8.59659C10.4856 8.97173 10.9943 9.18254 11.5248 9.18264C12.0552 9.18273 12.564 8.9721 12.9391 8.59709C13.3143 8.22207 13.5251 7.71339 13.5252 7.18294C13.5253 6.65249 13.3146 6.14373 12.9396 5.76858Z" fill="white"/>
</svg>
