<svg width="157" height="157" viewBox="0 0 157 157" fill="none" xmlns="http://www.w3.org/2000/svg">
<path d="M36.6285 115.797C37.6066 116.778 38.5847 117.759 39.5628 118.739C36.7915 118.249 34.0203 118.249 31.249 118.903C29.6188 119.23 28.1517 119.556 26.6845 120.21C25.2174 120.864 23.7503 121.518 22.6091 122.498L22.4461 122.662C22.4461 122.662 22.4461 122.662 22.2831 122.825C21.7941 123.316 21.468 123.806 21.142 124.296C20.979 124.787 20.816 125.44 20.979 125.931C20.979 126.094 20.979 126.094 20.979 126.258C20.979 126.421 21.142 126.584 21.142 126.748C21.305 127.075 21.468 127.238 21.6311 127.565C22.2831 128.382 23.0982 129.199 24.0763 129.69C26.5215 130.997 29.4558 130.834 32.0641 129.69C32.5531 129.526 32.8791 129.199 33.3682 129.036C34.9984 128.055 36.4655 126.748 37.6066 125.277C37.7696 125.113 37.9326 124.95 37.9326 124.787C38.9107 123.316 39.7258 121.518 40.7039 120.047C41.682 120.864 42.6601 121.681 43.6382 122.335C46.2465 124.133 49.0177 125.767 51.952 127.075C57.8206 129.69 64.1782 131.324 70.3728 132.468C71.1879 132.632 72.003 132.795 72.818 132.959C73.4701 133.122 73.7961 131.978 73.1441 131.978C66.9495 130.834 60.5919 129.363 54.7233 127.075C51.789 125.931 49.0177 124.46 46.2465 122.825C45.7574 122.498 45.4314 122.335 45.1053 122.008C46.8985 121.191 48.6917 120.374 50.3219 119.393C51.952 118.412 53.2561 116.941 54.3973 115.307C56.1904 112.692 56.8425 109.096 55.5384 106.154C54.8863 104.847 53.9082 103.376 52.4411 102.885C50.9739 102.395 49.6698 103.212 48.6917 104.193C47.5506 105.337 46.8985 106.808 46.2465 108.279C45.5944 109.75 45.1053 111.221 44.6163 112.855C43.9642 115.634 43.8012 118.576 44.1272 121.354C42.3341 120.047 40.7039 118.739 39.2368 117.268C38.0957 116.124 36.9545 114.98 35.8134 113.836C37.6066 112.692 39.7258 111.711 41.519 110.404C42.9861 109.26 44.2903 107.625 45.2684 105.991C46.8985 103.212 47.2245 99.6167 45.5944 96.6747C44.9423 95.3672 43.6382 94.0597 42.1711 93.7328C40.7039 93.2425 39.3998 94.2231 38.4217 95.3672C37.4436 96.5113 36.7915 98.1457 36.3025 99.6167C35.8134 101.088 35.3244 102.722 35.1614 104.356C34.6723 107.462 34.8353 110.567 35.4874 113.509C32.8792 110.567 30.4339 107.298 28.1517 104.193C27.8257 103.703 27.4996 103.376 27.1736 102.885C27.6626 102.722 28.1517 102.559 28.6407 102.395C31.412 101.415 34.0203 99.6167 35.6504 97.0016C37.4436 94.2231 38.2587 90.7909 37.4436 87.5221C37.1176 86.0511 36.3025 84.5801 34.6723 84.2532C33.0422 83.9264 31.575 84.7436 30.4339 85.8877C29.7819 86.5414 29.2928 87.1952 28.8038 87.8489C27.6626 89.6468 27.0106 91.6081 26.6845 93.5694C26.1955 96.021 26.1955 98.636 26.1955 101.251C24.2393 98.1457 22.4461 95.0403 20.979 91.6081C21.142 91.6081 21.142 91.4446 21.142 91.4446C23.4242 90.3006 25.7065 89.1565 27.1736 86.8683C28.6407 84.5801 28.4777 81.6382 27.6626 79.0231C27.3366 77.8791 26.6845 76.5715 25.7065 76.0812C25.2174 75.7543 24.7284 75.7543 24.2393 75.9178C23.5872 76.0812 23.2612 76.5715 22.7722 76.8984C20.816 78.6963 19.0228 80.9844 18.8598 83.5995C18.6968 84.4167 18.8598 85.0704 18.8598 85.8877C18.2077 84.0898 17.7187 82.1285 17.3926 80.1672C18.0447 77.7156 18.3707 75.264 18.3707 72.649C18.3707 69.8705 18.0447 67.092 16.4145 64.8038C15.5995 63.4963 14.2953 62.5156 12.8282 62.5156C11.361 62.5156 10.2199 63.6597 9.73088 64.9672C8.42676 67.7457 8.42676 71.0145 9.56787 73.9565C10.872 77.0619 13.4803 79.5135 16.4145 80.821C16.9036 83.436 17.7187 86.0511 18.6968 88.5027C17.7187 87.0317 16.7406 85.5608 15.1104 84.7436C13.6433 83.9264 12.0131 83.5995 10.383 83.5995C9.56787 83.5995 8.75279 83.5995 8.10072 83.7629C7.7747 83.7629 7.44866 83.9264 7.12263 83.9264C6.47057 84.0898 5.81851 84.0898 5.32946 84.5801C4.84042 84.907 4.51438 85.3973 4.51438 85.8877C4.35136 87.1952 5.00342 88.5027 5.8185 89.4834C7.44866 91.7715 9.73089 93.7328 12.6652 94.0597C14.1323 94.2231 15.4364 93.8963 16.7406 93.4059C17.8817 92.9156 19.0228 92.4253 20.1639 91.7715C21.468 94.7135 23.0982 97.6554 24.8914 100.434C22.6091 99.2898 20.1639 98.3092 17.7187 97.6554C15.1104 97.0016 12.3391 96.8382 9.73088 97.8188C8.42676 98.3092 6.95961 99.2898 6.63358 100.924C6.30755 102.395 7.28564 103.703 8.26374 104.52C10.709 106.481 13.9693 107.135 16.9036 106.645C20.3269 106.154 23.2612 104.03 25.2174 101.251C25.5434 101.741 25.8695 102.232 26.1955 102.722C28.1517 105.664 30.2709 108.606 32.5531 111.384C29.4558 109.913 26.1955 108.933 22.9352 108.769C21.305 108.606 19.5118 108.769 17.8817 108.933C16.2515 109.096 14.4583 109.423 12.9912 110.077C11.6871 110.731 10.383 111.875 10.383 113.509C10.383 115.144 11.5241 116.615 12.6652 117.759C15.2734 120.21 19.0228 120.537 22.2831 119.556C24.2393 119.066 26.1955 118.085 27.6626 116.778C29.4558 115.307 30.923 113.346 32.7161 111.711C33.8572 112.692 35.1614 114.326 36.6285 115.797Z" fill="#E0C280"/>
<path d="M28.4776 101.415C31.2489 100.434 33.8571 98.6363 35.4873 96.0212C37.2805 93.2427 38.0956 89.8105 37.2805 86.5416C36.9544 85.0707 36.1394 83.5997 34.5092 83.2728C32.879 82.9459 31.4119 83.7631 30.2708 84.9072C29.6187 85.561 29.1297 86.2148 28.6406 86.8685C29.1297 87.032 29.6187 86.8685 30.1078 87.1954C30.5968 87.5223 30.7598 88.0126 31.0859 88.5029C31.7379 89.8105 32.39 91.2814 32.39 92.7524C32.39 94.2234 31.9009 95.6943 31.2489 96.8384C30.5968 98.1459 29.6187 99.29 28.8036 100.434C28.4776 100.924 28.4776 101.251 28.4776 101.415Z" fill="#EFD5A0"/>
<path d="M12.013 93.2434C13.4801 93.4069 14.7843 93.08 16.0884 92.5897C17.2295 92.0993 18.3706 91.609 19.5117 90.9552C19.5117 90.7918 19.5117 90.7918 19.5117 90.6284C19.3487 90.4649 19.1857 90.4649 19.0227 90.4649C17.7186 90.3015 16.2514 89.9746 14.9473 89.4843C13.6432 88.994 12.502 88.3402 11.3609 87.523C10.5458 86.8692 9.73076 86.052 9.56775 84.9079C9.40473 84.2542 9.89377 83.2735 9.89377 82.7832C9.0787 82.7832 8.26363 82.7832 7.61156 82.9466C7.28553 82.9466 6.95949 83.1101 6.63346 83.1101C5.98139 83.2735 5.32933 83.2735 4.84028 83.7638C4.35124 84.0907 4.0252 84.581 4.0252 85.0714C3.86219 86.3789 4.51426 87.6864 5.32934 88.6671C6.79648 91.1187 9.24172 93.08 12.013 93.2434Z" fill="#EFD5A0"/>
<path d="M58.3094 57.9398C59.1245 57.9398 59.9396 57.7764 60.7547 57.9398C60.9177 57.9398 61.0807 58.1033 61.2437 58.1033C61.4067 58.2667 61.4067 58.5936 61.4067 58.757C61.4067 59.9011 61.2437 61.0452 60.9177 62.1893C60.5917 63.1699 60.2656 63.9871 59.6136 64.6409C58.4724 65.6215 56.8423 65.785 55.3751 65.9484C54.8861 65.9484 54.397 65.9484 53.908 65.785C53.419 65.6215 53.0929 65.1312 52.7669 64.6409C52.2778 63.6603 52.1148 62.5162 51.9518 61.3721C51.9518 60.5549 51.4628 58.4302 51.7888 57.7764C52.1148 57.1226 54.071 57.7764 54.7231 57.7764C55.8642 57.9398 57.1683 58.1033 58.3094 57.9398Z" fill="#686868"/>
<path d="M38.7476 134.92H56.8423C80.9687 134.92 120.582 134.92 120.582 134.92L110.475 57.9398H62.5479C61.5698 57.9398 60.2657 57.613 59.4506 57.9398C59.1245 57.9398 58.9615 58.1033 58.6355 58.2667C57.6574 58.9205 56.8423 60.0646 56.0272 61.0452C55.8642 61.3721 55.5382 61.699 55.2122 61.5355C54.8861 61.5355 54.7231 61.2087 54.5601 61.0452C53.908 60.0646 53.419 59.0839 52.9299 57.9398C52.7669 57.4495 52.4409 56.7958 51.7888 56.9592C50.1587 57.1226 48.8545 70.1979 48.6915 71.6689C47.5504 78.6968 46.4093 85.8882 45.2682 92.9162C43.149 105.665 41.0298 118.413 39.0736 131.161C39.2366 131.652 38.7476 134.92 38.7476 134.92Z" fill="#F5F7F9"/>
<path d="M90.9131 57.9395C90.424 46.8255 74.7745 -14.7917 58.6359 57.9395" stroke="#848484" stroke-width="0.9084" stroke-miterlimit="10"/>
<path d="M102.324 57.9395C101.835 46.8255 86.1851 -14.7917 70.0466 57.9395" stroke="#9B9B9B" stroke-width="0.9084" stroke-miterlimit="10"/>
<path d="M56.8426 134.921C56.6796 131.815 56.6796 128.71 56.8426 125.604C57.0057 118.903 57.1687 112.039 57.3317 105.338C57.6577 93.5701 57.9838 81.6389 58.3098 69.8711C58.3098 66.9292 58.4728 63.9873 58.4728 61.0453C58.4728 60.2281 58.6358 59.2475 58.7988 58.4303C57.8207 59.0841 57.0057 60.2281 56.1906 61.2088C56.0276 61.5357 55.7015 61.8625 55.3755 61.6991C55.0495 61.6991 54.8864 61.3722 54.7234 61.2088C54.0714 60.2281 53.5823 59.2475 53.0933 58.1034C52.9303 57.6131 52.6042 56.9593 51.9522 57.1228C50.322 57.2862 49.0179 70.3615 48.8549 71.8324C47.7137 78.8604 46.5726 86.0518 45.4315 93.0797C43.3123 105.828 41.1931 118.576 39.2369 131.325C39.2369 131.488 38.7479 134.757 38.7479 134.757H56.8426V134.921Z" fill="#CDD5E0"/>
<path d="M69.2315 134.92H120.582L110.475 57.9395H105.258C105.258 57.9395 105.258 57.9395 105.258 58.1029C103.628 63.0061 105.421 71.0147 105.421 76.2448C105.421 88.8298 104.932 101.578 103.791 114.163C103.302 119.23 102.487 125.114 98.4114 128.056C95.1511 130.344 90.9127 130.344 86.8373 130.671C82.1098 130.997 77.3823 131.815 72.8179 133.122C71.5138 133.449 70.2096 133.939 69.2315 134.92Z" fill="#EAEDF1"/>
<path d="M106.073 133.612C107.051 132.959 107.866 131.978 108.681 131.161C110.148 129.526 111.127 127.728 112.268 125.767C115.854 119.556 119.929 113.999 124.494 108.606C129.221 102.885 134.438 97.4919 139.817 92.5886C140.143 92.2618 140.469 91.9349 140.958 91.608L140.469 91.1177C135.742 95.2037 131.504 99.78 127.265 104.356C123.353 108.606 119.766 113.182 116.343 117.759C113.083 122.335 110.475 127.728 106.399 131.814C105.258 132.958 103.954 134.103 102.487 134.92C103.954 134.92 105.095 134.429 106.073 133.612Z" fill="#A3C66B"/>
<path d="M119.115 97.3277C119.115 97.4911 119.115 97.6546 119.278 97.818C120.419 102.231 124.331 104.192 125.472 104.683C125.635 104.846 125.798 104.846 125.798 104.846C125.798 104.846 128.244 102.721 128.733 99.1256C128.896 98.3084 128.896 97.4911 128.733 96.5105C128.081 91.2804 123.679 87.3578 122.375 86.3772C122.212 86.2137 122.049 86.0503 122.049 86.0503C121.886 86.2137 121.886 86.3772 121.723 86.3772C121.234 87.1944 120.093 88.9922 119.278 91.4438C119.278 91.6073 119.115 91.7707 119.115 92.0976C119.115 92.261 119.115 92.261 119.115 92.4245C118.789 94.0589 118.789 95.6933 119.115 97.3277Z" fill="#A3C66B"/>
<path d="M154 83.5989C154 83.5989 153.022 89.1559 148.457 91.444C144.708 93.4053 140.796 91.2806 140.796 91.2806C140.796 91.2806 140.633 87.5214 144.219 85.0698C148.294 82.2913 154 83.5989 154 83.5989Z" fill="#A3C66B"/>
<path d="M146.827 110.567C146.827 110.567 141.285 114.98 135.09 113.345C130.037 112.038 128.08 106.808 128.08 106.808C128.08 106.808 131.178 103.212 136.394 103.866C142.589 104.519 146.827 110.567 146.827 110.567Z" fill="#A3C66B"/>
<path d="M135.579 80.4937C135.579 80.4937 139.817 84.2528 139.491 89.3195C139.165 93.5689 135.416 95.6936 135.416 95.6936C135.416 95.6936 132.156 93.8958 131.83 89.6463C131.504 84.7431 135.579 80.4937 135.579 80.4937Z" fill="#A3C66B"/>
<path d="M136.231 97.3285C136.231 97.3285 137.861 101.415 141.937 102.395C146.827 103.539 151.229 99.7801 151.229 99.7801C151.229 99.7801 151.066 99.6167 150.739 99.2898C149.761 98.1457 146.501 95.0404 142.752 94.7135C142.589 94.7135 142.589 94.7135 142.426 94.7135C138.513 94.55 136.231 97.3285 136.231 97.3285Z" fill="#A3C66B"/>
<path d="M114.061 101.087C114.061 101.087 118.951 103.866 119.603 108.933C120.092 113.182 116.832 115.961 116.832 115.961C116.832 115.961 113.246 114.816 112.105 110.73C110.8 105.991 114.061 101.087 114.061 101.087Z" fill="#A3C66B"/>
<path d="M133.134 117.105C133.134 117.105 129.547 121.517 124.494 121.354C120.256 121.191 117.973 117.595 117.973 117.595C117.973 117.595 119.766 114.163 123.842 113.672C128.732 113.182 133.134 117.105 133.134 117.105Z" fill="#A3C66B"/>
<path opacity="0.7" d="M119.115 97.3277C119.115 97.4911 119.115 97.6546 119.278 97.818C120.419 102.231 124.331 104.192 125.473 104.683C125.636 104.846 125.799 104.846 125.799 104.846C125.799 104.846 128.244 102.721 128.733 99.1256C128.57 99.1256 128.57 99.289 128.407 99.289C127.429 100.106 125.962 99.4524 124.984 98.6352C122.701 96.6739 122.212 93.8955 122.049 90.9535C122.049 89.646 122.701 87.6847 122.538 86.5406V86.3772C122.375 86.2137 122.212 86.0503 122.212 86.0503C122.049 86.2137 122.049 86.3772 121.886 86.3772C121.723 86.5406 121.723 86.7041 121.56 86.8675C120.745 88.0116 120.256 89.3191 119.767 90.4632C119.604 90.7901 119.604 91.117 119.441 91.4438C119.441 91.6073 119.441 91.6073 119.441 91.7707C119.441 91.9342 119.441 91.9342 119.441 92.0976C119.441 92.261 119.441 92.261 119.441 92.4245C118.789 94.2223 119.115 95.6933 119.115 97.3277Z" fill="#A3C66B"/>
<path opacity="0.7" d="M136.231 97.3285C136.231 97.3285 137.861 101.415 141.937 102.395C146.827 103.539 151.229 99.7801 151.229 99.7801C151.229 99.7801 151.066 99.6167 150.739 99.2898C150.25 99.4533 149.761 99.7802 149.435 99.9436C148.294 100.27 146.99 100.27 145.849 99.7801C144.056 98.9629 142.589 97.1651 142.426 95.2038C142.426 95.0404 142.426 94.8769 142.263 94.7135C138.513 94.55 136.231 97.3285 136.231 97.3285Z" fill="#A3C66B"/>
<path opacity="0.32" d="M85.2071 103.703C79.4451 103.703 74.7741 97.7758 74.7741 90.4643C74.7741 83.1528 79.4451 77.2256 85.2071 77.2256C90.9691 77.2256 95.6401 83.1528 95.6401 90.4643C95.6401 97.7758 90.9691 103.703 85.2071 103.703Z" fill="#CDD5E0"/>
</svg>
