<svg width="24" height="24" viewBox="0 0 24 24"  xmlns="http://www.w3.org/2000/svg">
<g filter="url(#filter0_ii_624_6012)">
<g filter="url(#filter1_ii_624_6012)">
<path d="M11.9994 2C9.59422 2 7.64453 3.93574 7.64453 6.32367C7.64453 8.71161 9.59422 10.6473 11.9994 10.6473C14.4045 10.6473 16.3542 8.71161 16.3542 6.32367C16.3542 3.93574 14.4045 2 11.9994 2Z" />
<path d="M7.35484 12.9531C4.94969 12.9531 3 14.8889 3 17.2768V18.6469C3 19.5153 3.63395 20.2557 4.49725 20.3957C9.46618 21.2012 14.5338 21.2012 19.5027 20.3957C20.3661 20.2557 21 19.5153 21 18.6469V17.2768C21 14.8889 19.0503 12.9531 16.6452 12.9531H16.2493C16.035 12.9531 15.8222 12.9868 15.6185 13.0527L14.6134 13.3787C12.9152 13.9291 11.0848 13.9291 9.38663 13.3787L8.38154 13.0527C8.17785 12.9868 7.96498 12.9531 7.75072 12.9531H7.35484Z" />
</g>
</g>
<defs>
<filter id="filter0_ii_624_6012" x="-1" y="0" width="26" height="25" filterUnits="userSpaceOnUse" color-interpolation-filters="sRGB">
<feFlood flood-opacity="0" result="BackgroundImageFix"/>
<feBlend mode="normal" in="SourceGraphic" in2="BackgroundImageFix" result="shape"/>
<feColorMatrix in="SourceAlpha" type="matrix" values="0 0 0 0 0 0 0 0 0 0 0 0 0 0 0 0 0 0 127 0" result="hardAlpha"/>
<feOffset dx="-1" dy="1"/>
<feGaussianBlur stdDeviation="1"/>
<feComposite in2="hardAlpha" operator="arithmetic" k2="-1" k3="1"/>
<feColorMatrix type="matrix" values="0 0 0 0 0.156863 0 0 0 0 0.0980392 0 0 0 0 0.0627451 0 0 0 0.3 0"/>
<feBlend mode="normal" in2="shape" result="effect1_innerShadow_624_6012"/>
<feColorMatrix in="SourceAlpha" type="matrix" values="0 0 0 0 0 0 0 0 0 0 0 0 0 0 0 0 0 0 127 0" result="hardAlpha"/>
<feOffset dx="1" dy="1"/>
<feGaussianBlur stdDeviation="0.5"/>
<feComposite in2="hardAlpha" operator="arithmetic" k2="-1" k3="1"/>
<feColorMatrix type="matrix" values="0 0 0 0 0.7 0 0 0 0 0.7 0 0 0 0 0.7 0 0 0 0.25 0"/>
<feBlend mode="normal" in2="effect1_innerShadow_624_6012" result="effect2_innerShadow_624_6012"/>
</filter>
<filter id="filter1_ii_624_6012" x="2" y="2" width="20" height="20" filterUnits="userSpaceOnUse" color-interpolation-filters="sRGB">
<feFlood flood-opacity="0" result="BackgroundImageFix"/>
<feBlend mode="normal" in="SourceGraphic" in2="BackgroundImageFix" result="shape"/>
<feColorMatrix in="SourceAlpha" type="matrix" values="0 0 0 0 0 0 0 0 0 0 0 0 0 0 0 0 0 0 127 0" result="hardAlpha"/>
<feOffset dx="-1" dy="1"/>
<feGaussianBlur stdDeviation="1"/>
<feComposite in2="hardAlpha" operator="arithmetic" k2="-1" k3="1"/>
<feColorMatrix type="matrix" values="0 0 0 0 0.156863 0 0 0 0 0.0980392 0 0 0 0 0.0627451 0 0 0 0.3 0"/>
<feBlend mode="normal" in2="shape" result="effect1_innerShadow_624_6012"/>
<feColorMatrix in="SourceAlpha" type="matrix" values="0 0 0 0 0 0 0 0 0 0 0 0 0 0 0 0 0 0 127 0" result="hardAlpha"/>
<feOffset dx="1" dy="1"/>
<feGaussianBlur stdDeviation="0.5"/>
<feComposite in2="hardAlpha" operator="arithmetic" k2="-1" k3="1"/>
<feColorMatrix type="matrix" values="0 0 0 0 0.7 0 0 0 0 0.7 0 0 0 0 0.7 0 0 0 0.25 0"/>
<feBlend mode="normal" in2="effect1_innerShadow_624_6012" result="effect2_innerShadow_624_6012"/>
</filter>
</defs>
</svg>
