<svg version="1.1" viewBox="0 0 2048 521" width="100%" height="100%" xmlns="http://www.w3.org/2000/svg">
<path transform="translate(1256,7)" d="m0 0h83l24 3 19 5 14 6 12 8 10 9 7 8 8 14 7 21 2 10v25l-4 15-7 14-7 9-9 9-10 7-13 7 16 8 8 6 5 4 11 14 10 19 5 15 4 20 1 18-2 20-5 17-8 16-10 13-9 8-14 8-13 4-13 2h-122l-1-169v-141zm49 13v153l13 1h16l16-4 12-7 9-8 7-11 5-13 2-10v-28l-4-19-5-14-7-13-9-10-9-7-10-5-14-4-8-1zm1 166-1 1v170h17l20-4 10-4 10-7 7-7 8-14 5-16 2-12 1-22-2-21-4-17-7-16-7-10-8-9-11-7-13-4-13-1z" fill="#055257"/>
<path transform="translate(574,7)" d="m0 0h72l8 16 17 36 15 33 17 36 1 3 2 1 2-5 18-27 10-16 10-15 13-20 15-23 12-18 1-1h37l-2 5-11 17-12 19-16 25-42 66-16 25-2 3 1 6 13 27 13 28 16 34 15 33 14 30 19 41v2l-71 1-8-16-15-32-12-26-19-40-9-19-2-1-2 5-14 21-44 67-26 39-1 1h-37l2-5 15-23 22-34 16-25 13-20 22-34 16-25 2-3-1-5-21-43-13-28-15-31-13-28-18-39-7-16z" fill="#055257"/>
<path transform="translate(1816,7)" d="m0 0h48l1 199v66l-1 2 11-9 9-9 8-7 16-15 12-11 41-1-2 4-17 16-8 8-8 7-8 8-8 7-5 5h-2l8 10 11 12 7 8 9 10 7 8 9 10 7 8 9 10 7 8 5 6v2l-65-1-12-12-7-8-14-15-18-20h-1v55l-28 1h-20l-1-1z" fill="#055257"/>
<path transform="translate(1e3 7)" d="m0 0h48v361l-28 1h-20l-1-1v-359z" fill="#055157"/>
<path transform="translate(1142,222)" d="m0 0h15l12 3 11 6 7 6 1-14h44v227l-1 1h-43l-1-8v-89l-10 8-10 5-8 2h-22l-17-4-14-7-13-10-10-11-8-13-5-13-2-11v-13l4-16 7-13 9-10 10-9 14-8 15-6zm5 9-8 4-7 7-6 13-4 16-1 8v25l3 19 5 16 6 11 9 8 6 2 10-1 10-6 8-9 5-12 4-19 1-9v-30l-3-17-6-12-5-6-10-6-6-2z" fill="#055257"/>
<path transform="translate(1714,220)" d="m0 0h33l16 4 12 7 8 8 6 12 1 4v113l-31 1h-16l-1-1-1-116-3-10-5-6-7-3h-14l-10 4-7 6-5 9-1 4-1 112-27 1h-21l-1-1v-145h49l1 6 12-6z" fill="#055257"/>
<path transform="translate(1542,223)" d="m0 0h29l16 4 12 6 10 9 4 8v118l-44 1-4-1v-6l-12 5-13 3h-24l-17-4-12-6-10-9-6-9-3-9-1-6v-11l3-12 7-11 8-7 10-6 15-5 13-2h12l13 2 12 4 4 2v-30l-3-9-7-6-5-2h-15l-19 5-22 9h-3l-3-6 1-3 20-8 17-5zm-3 60-7 3-6 5-7 14-3 12v17l4 11 6 8 6 5 9 3 12-2 9-6 3-4v-53l-6-7-11-5z" fill="#055257"/>
<path transform="translate(917,222)" d="m0 0 15 1 16 4 13 7 9 9 3 6 1 6v113l-43 1-5-1v-6l-19 7-13 2h-11l-16-3-13-5-10-6-8-7-6-9-3-9v-16l5-12 6-9 9-9 13-8 13-4 7-1h12l16 2 18 7-1-24-2-12-4-7-7-4-5-1h-10l-17 4-27 10h-3l-2-8 11-5 22-7 16-4zm-18 62-7 3-8 7-6 12-2 10v15l3 10 5 9 7 7 6 3 9 1 10-3 9-7 1-2v-53l-5-6-10-5-4-1z" fill="#055257"/>
<path transform="translate(435,65)" d="m0 0 4 1-15 8-26 16-25 17-12 9-14 11-13 12-16 16-13 17-8 13-9 17-9 25-6 24-4 25-3 32-2 60-2-2-13-46-7-31-4-25-1-10v-37l3-18 6-18 9-17 9-12 11-12 14-12 18-12 18-10 27-13 33-13 31-10z" fill="#055257"/>
<path transform="translate(45,2)" d="m0 0 5 2 24 13 28 15 26 12 23 9 22 6 16 3 9 1h35l21-3 26-6 33-11 25-11 20-10 21-12 13-8 2 1-8 8-8 7-12 12-8 7-10 9-14 11-17 13-17 11-16 9-17 8-18 6-19 4-9 1h-19l-19-3-21-7-19-10-17-12-16-13-11-9-11-10-8-7-16-15-15-15z" fill="#055257"/>
<path transform="translate(3,66)" d="m0 0 9 2 38 12 29 10 30 13 17 9 18 12 11 9 10 9 11 13 10 16 7 16 5 18 2 13v38l-3 23-6 31-13 56-2 2v-19l-1-34-3-38-4-27-6-24-8-21-11-21-10-14-12-14-16-16-11-9-16-13-18-13-23-16-29-19z" fill="#055257"/>
<path transform="translate(2e3 223)" d="m0 0h48v145l-27 1h-20l-1-1z" fill="#055257"/>
<path transform="translate(1840,420)" d="m0 0h9l14 3 10 6 6 7 2 6v11l-5 10-5 5 10 9 3 6 1 4v8l-4 10-6 7-10 5-12 3h-16l-13-3-10-6-5-6-4-11 1-11 6-10 7-5-5-5-5-10v-12l4-8 8-7 9-4zm-1 15-7 3-5 6v9l5 6 5 2h16l6-3 4-5v-9l-6-7-6-2zm-1 40-8 3-5 6-1 3v7l3 6 8 5 12 1 10-2 6-4 3-5v-9l-4-6-4-3-7-2z" fill="#055257"/>
<path transform="translate(1649,431)" d="m0 0h13l11 3 9 5 8 7 5 8 4 13v15h-68l4 9 5 5 10 5 11 1 10-2 9-5 4-1 9 11-2 4-10 7-14 4h-17l-12-3-11-6-9-9-6-12-2-10v-9l4-15 6-9 8-8 12-6zm-1 17-8 4-7 8-2 8h49l-3-9-6-7-6-3-4-1z" fill="#055257"/>
<path transform="translate(1455,431)" d="m0 0h13l13 4 8 6 6 8 3 8 1 9v52l-1 1h-20l-1-54-3-8-6-5-6-2h-10l-9 4-5 5-3 8-1 52h-21v-87h19l1 1 1 8 10-7z" fill="#055257"/>
<path transform="translate(1307,431)" d="m0 0h15l15 3 9 4-3 9-4 7-9-3-9-2h-15l-7 3-2 2v6l4 4 18 4 15 4 9 5 4 5 3 9-2 11-4 6-8 7-11 4-5 1h-18l-15-3-12-5-1-4 6-13 18 6 5 1h18l6-3 1-2v-6l-4-3-18-4-16-4-8-5-4-5-2-4v-15l6-10 9-6z" fill="#055257"/>
<path transform="translate(1985,422)" d="m0 0h61v15h-46v12l-1 10h17l11 2 10 5 8 9 3 8v11l-4 10-5 7-10 6-11 3h-17l-16-4-10-5-2-3 7-13 5 2 11 5 5 1h16l8-4 3-5v-10l-4-5-10-3-11-1-23-1 1-14z" fill="#055257"/>
<path transform="translate(1558,431)" d="m0 0h15l13 4 8 6 7 8-1 4-13 7-3-1-4-5-9-4h-14l-10 5-6 9-1 3v17l5 10 5 4 7 3h14l10-5 4-5 5 1 11 7-1 4-7 8-10 6-11 3h-15l-12-3-8-4-10-9-6-10-3-11v-17l4-11 6-9 8-7 13-6z" fill="#055257"/>
<path transform="translate(1894,422)" d="m0 0h75v13l-11 25-26 58-1 1h-18l1-6 20-45 13-30-36-1v16l-1 1h-15l-1-1z" fill="#055257"/>
<path transform="translate(1749,422)" d="m0 0h38v97h-18v-82h-21v-14z" fill="#055257"/>
<path transform="translate(2019,156)" d="m0 0h10l9 4 7 8 3 8v9l-5 10-8 7-6 2h-13l-8-4-7-8-3-9 1-9 4-8 8-7z" fill="#055257"/>
<path transform="translate(1366,455)" d="m0 0 12 1 9-1v64h-20l-1-1z" fill="#055157"/>
<path transform="translate(1816,7)" d="m0 0h15v1l-10 2-1 10-1 3 1 23v170l1 3v42l1 14h-3l3 3-2 1v41h1v10h-2l1 37-4 1z" fill="#044B53"/>
<path transform="translate(1256,8)" d="m0 0 3 1v343l2 5-2 11h-3l-1-168v-141z" fill="#044953"/>
<path transform="translate(1372,424)" d="m0 0h10l5 3 3 5v8l-3 5-6 3h-9l-6-4-3-6 1-7 4-5z" fill="#055257"/>
<path transform="translate(1640,243)" d="m0 0 2 1 1 27v14l-1 1v8l2 1-1 22v14l1 8-1 1v7 1l1 3-3 7-2-4v-78l1-3z" fill="#044852"/>
<path transform="translate(1188,370)" d="m0 0h1l2 14 1 21 3 20v12l-3 7v5l-4 1-1-7v-29z" fill="#054A53"/>
<path transform="translate(1e3 38)" d="m0 0h1l1 9v10l2 3v7h-2v10l1 6v55h-1l-1 51h-1z" fill="#044852"/>
<path transform="translate(1769,441)" d="m0 0 2 2 2 15 1 14v35l-3 7h-2z" fill="#044852"/>
<path transform="translate(1743,281)" d="m0 0 2 3 1 14v10l-1 2-1 7 2 1h-2v2h2l1 5-1 9 1 4v19l-1 11h-2v-8h-2v-51l1-11z" fill="#044852"/>
<path transform="translate(1819,261)" d="m0 0h2l1 14h-3l3 3-2 1v41h1v10h-2l1 37h-3v-104h2z" fill="#044852"/>
<path transform="translate(1e3 191)" d="m0 0h1v99l-2 1-1-4v-87z" fill="#044852"/>
<path transform="translate(1e3 302)" d="m0 0h3l1 15-1 14 1 7-1 5 2 2-1 22-4 1z" fill="#044852"/>
<path transform="translate(2e3 267)" d="m0 0h1v15l1 1v28l-2-1v43l-1 6h-1v-91z" fill="#044852"/>
<path transform="translate(1414,458)" d="m0 0 2 1 1 20 2 14v6l-5-1z" fill="#044852"/>
<path transform="translate(1188,370)" d="m0 0h1l2 14 1 20-2 3h-2z" fill="#044952"/>
<path transform="translate(1479,489)" d="m0 0 2 4 3 12-2 5-4 2v-12z" fill="#044A53"/>
<path transform="translate(1e3 7)" d="m0 0h17v1l-14 2v15l-1-2h-2z" fill="#044852"/>
<path transform="translate(2e3 242)" d="m0 0 2 4 1 20-2 1-1-7z" fill="#044852"/>
<path transform="translate(1565,307)" d="m0 0h1l2 16-2 6h-1z" fill="#044852"/>
<path transform="translate(2,65)" d="m0 0" fill="#055257"/>
<path transform="translate(394,1)" d="m0 0" fill="#055257"/>
</svg>
