<svg width="45" height="50" viewBox="0 0 45 50" fill="none" xmlns="http://www.w3.org/2000/svg">
<path d="M40.2925 21.9707C40.6068 33.4789 27.83 39.9879 19.2491 37.7096C11.7851 35.7278 6.47949 22.074 7.38498 6.88642C7.52047 4.61396 7.795 2.30717 8.22217 0C28.4439 6.34182 39.9783 10.4626 40.2925 21.9707Z" fill="#4AB75F"/>
<g style="mix-blend-mode:multiply">
<path d="M38.4837 35.6254C34.2148 36.6235 30.8157 32.1011 31.0133 28.5584C31.1853 25.4768 35.8752 22.3557 41.6093 21.5569C42.4673 21.4373 43.3486 21.3698 44.2417 21.3622C43.4131 29.7848 42.7526 34.6273 38.4837 35.6254Z" fill="#4F4F4F"/>
</g>
<g style="mix-blend-mode:multiply">
<path fill-rule="evenodd" clip-rule="evenodd" d="M28.2345 49.9369L30.6257 49.9998C30.6555 49.1952 30.6665 48.3834 30.6578 47.5654C30.4931 31.9298 23.2364 18.8348 13.3984 14.6437C22.0391 20.4036 28.1029 32.9807 28.2577 47.6747C28.2657 48.4341 28.2579 49.1884 28.2345 49.9369Z" fill="#4F4F4F"/>
</g>
</svg>
